<svg xmlns:xlink="http://www.w3.org/1999/xlink" width="545.286" height="399.087" viewBox="0 0 408.964 299.316" xmlns="http://www.w3.org/2000/svg"><defs><style>*{stroke-linejoin:round;stroke-linecap:butt}</style></defs><g id="figure_1"><path d="M0 299.316h408.964V0H0v299.316z" style="fill:none" id="patch_1"/><g id="axes_1"><path d="M44.644 273.312h357.12V7.2H44.644v266.112z" style="fill:none" id="patch_2"/><g id="matplotlib.axis_1"><g id="xtick_1"><g id="line2d_1"><defs><path id="mfe909e6af9" d="M0 0v3.5" style="stroke:#000;stroke-width:.8"/></defs><use xlink:href="#mfe909e6af9" x="60.877" y="273.312" style="stroke:#000;stroke-width:.8"/></g><g transform="matrix(.13 0 0 -.13 52.863 289.542)" id="text_1"><defs><path id="MyriadPro-Regular-30" d="M1677 4230c-845 0-1447-768-1447-2163C243 691 794-70 1606-70c922 0 1447 780 1447 2195 0 1325-499 2105-1376 2105zm-32-435c582 0 845-672 845-1696 0-1062-276-1734-852-1734-512 0-844 614-844 1696 0 1133 358 1734 851 1734z" transform="scale(.01563)"/><path id="MyriadPro-Regular-2e" d="M710-70c237 0 384 172 384 403 0 237-153 403-377 403S333 570 333 333c0-231 153-403 371-403h6z" transform="scale(.01563)"/></defs><use xlink:href="#MyriadPro-Regular-30"/><use xlink:href="#MyriadPro-Regular-2e" x="51.3"/><use xlink:href="#MyriadPro-Regular-30" x="72"/></g></g><g id="xtick_2"><use xlink:href="#mfe909e6af9" x="125.808" y="273.312" style="stroke:#000;stroke-width:.8" id="line2d_2"/><g transform="matrix(.13 0 0 -.13 117.794 289.542)" id="text_2"><defs><path id="MyriadPro-Regular-32" d="M2944 0v467H1075v13l333 307c877 845 1434 1466 1434 2234 0 595-378 1209-1274 1209-480 0-890-179-1178-422l180-397c192 160 505 352 883 352 621 0 825-390 825-813-6-627-486-1164-1548-2176L288 346V0h2656z" transform="scale(.01563)"/></defs><use xlink:href="#MyriadPro-Regular-30"/><use xlink:href="#MyriadPro-Regular-2e" x="51.3"/><use xlink:href="#MyriadPro-Regular-32" x="72"/></g></g><g id="xtick_3"><use xlink:href="#mfe909e6af9" x="190.739" y="273.312" style="stroke:#000;stroke-width:.8" id="line2d_3"/><g transform="matrix(.13 0 0 -.13 182.725 289.542)" id="text_3"><defs><path id="MyriadPro-Regular-34" d="M2560 0v1133h582v441h-582v2586h-608L96 1504v-371h1933V0h531zM666 1574v13l1017 1415c115 192 218 371 346 614h19c-13-218-19-435-19-653V1574H666z" transform="scale(.01563)"/></defs><use xlink:href="#MyriadPro-Regular-30"/><use xlink:href="#MyriadPro-Regular-2e" x="51.3"/><use xlink:href="#MyriadPro-Regular-34" x="72"/></g></g><g id="xtick_4"><use xlink:href="#mfe909e6af9" x="255.67" y="273.312" style="stroke:#000;stroke-width:.8" id="line2d_4"/><g transform="matrix(.13 0 0 -.13 247.656 289.542)" id="text_4"><defs><path id="MyriadPro-Regular-36" d="M2662 4224c-102 0-243-6-409-32-525-64-986-275-1331-614-410-410-704-1056-704-1876C218 621 800-70 1690-70c864 0 1382 704 1382 1465 0 813-518 1344-1254 1344-461 0-807-217-1005-480h-19c96 685 563 1331 1446 1479 160 25 307 32 422 25v461zM1690 365c-589 0-903 505-916 1190 0 103 26 186 64 250 154 301 468 512 807 512 518 0 857-359 857-954s-326-998-806-998h-6z" transform="scale(.01563)"/></defs><use xlink:href="#MyriadPro-Regular-30"/><use xlink:href="#MyriadPro-Regular-2e" x="51.3"/><use xlink:href="#MyriadPro-Regular-36" x="72"/></g></g><g id="xtick_5"><use xlink:href="#mfe909e6af9" x="320.601" y="273.312" style="stroke:#000;stroke-width:.8" id="line2d_5"/><g transform="matrix(.13 0 0 -.13 312.586 289.542)" id="text_5"><defs><path id="MyriadPro-Regular-38" d="M1062 2170c-512-218-825-589-825-1114C237 448 762-70 1632-70c794 0 1414 486 1414 1209 0 506-320 871-838 1075v20c512 243 685 620 685 972 0 519-403 1024-1210 1024-729 0-1286-448-1286-1107 0-358 198-717 659-934l6-19zm583-1831c-531 0-851 371-832 794 0 397 262 717 749 857 563-160 915-403 915-908 0-423-327-743-832-743zm6 3488c506 0 704-345 704-678 0-378-275-634-633-755-480 128-794 352-794 768 0 358 256 665 723 665z" transform="scale(.01563)"/></defs><use xlink:href="#MyriadPro-Regular-30"/><use xlink:href="#MyriadPro-Regular-2e" x="51.3"/><use xlink:href="#MyriadPro-Regular-38" x="72"/></g></g><g id="xtick_6"><use xlink:href="#mfe909e6af9" x="385.532" y="273.312" style="stroke:#000;stroke-width:.8" id="line2d_6"/><g transform="matrix(.13 0 0 -.13 377.517 289.542)" id="text_6"><defs><path id="MyriadPro-Regular-31" d="M1510 0h544v4160h-480l-908-486 108-429 724 390h12V0z" transform="scale(.01563)"/></defs><use xlink:href="#MyriadPro-Regular-31"/><use xlink:href="#MyriadPro-Regular-2e" x="51.3"/><use xlink:href="#MyriadPro-Regular-30" x="72"/></g></g></g><g id="matplotlib.axis_2"><g id="ytick_1"><g id="line2d_7"><defs><path id="m7a61ecd8e6" d="M0 0h-3.5" style="stroke:#000;stroke-width:.8"/></defs><use xlink:href="#m7a61ecd8e6" x="44.644" y="263.373" style="stroke:#000;stroke-width:.8"/></g><g transform="matrix(.13 0 0 -.13 7.2 267.988)" id="text_7"><defs><path id="MyriadPro-Regular-2212" d="M256 1901v-384h3302v384H256z" transform="scale(.01563)"/></defs><use xlink:href="#MyriadPro-Regular-2212"/><use xlink:href="#MyriadPro-Regular-31" x="59.6"/><use xlink:href="#MyriadPro-Regular-2e" x="110.9"/><use xlink:href="#MyriadPro-Regular-30" x="131.6"/><use xlink:href="#MyriadPro-Regular-30" x="182.9"/></g></g><g id="ytick_2"><use xlink:href="#m7a61ecd8e6" x="44.644" y="232.64" style="stroke:#000;stroke-width:.8" id="line2d_8"/><g transform="matrix(.13 0 0 -.13 7.2 237.255)" id="text_8"><defs><path id="MyriadPro-Regular-37" d="M365 4160v-467h2035v-13L595 0h583l1811 3789v371H365z" transform="scale(.01563)"/><path id="MyriadPro-Regular-35" d="M2771 4160H781L512 2163c154 19 339 45 576 45 832 0 1190-384 1197-922 0-556-455-902-986-902-377 0-717 128-889 230L269 186C467 58 851-70 1306-70c902 0 1548 608 1548 1420 0 525-268 884-595 1069-256 154-576 224-896 224-153 0-243-13-339-25l160 1068h1587v474z" transform="scale(.01563)"/></defs><use xlink:href="#MyriadPro-Regular-2212"/><use xlink:href="#MyriadPro-Regular-30" x="59.6"/><use xlink:href="#MyriadPro-Regular-2e" x="110.9"/><use xlink:href="#MyriadPro-Regular-37" x="131.6"/><use xlink:href="#MyriadPro-Regular-35" x="182.9"/></g></g><g id="ytick_3"><use xlink:href="#m7a61ecd8e6" x="44.644" y="201.907" style="stroke:#000;stroke-width:.8" id="line2d_9"/><g transform="matrix(.13 0 0 -.13 7.2 206.522)" id="text_9"><use xlink:href="#MyriadPro-Regular-2212"/><use xlink:href="#MyriadPro-Regular-30" x="59.6"/><use xlink:href="#MyriadPro-Regular-2e" x="110.9"/><use xlink:href="#MyriadPro-Regular-35" x="131.6"/><use xlink:href="#MyriadPro-Regular-30" x="182.9"/></g></g><g id="ytick_4"><use xlink:href="#m7a61ecd8e6" x="44.644" y="171.173" style="stroke:#000;stroke-width:.8" id="line2d_10"/><g transform="matrix(.13 0 0 -.13 7.2 175.788)" id="text_10"><use xlink:href="#MyriadPro-Regular-2212"/><use xlink:href="#MyriadPro-Regular-30" x="59.6"/><use xlink:href="#MyriadPro-Regular-2e" x="110.9"/><use xlink:href="#MyriadPro-Regular-32" x="131.6"/><use xlink:href="#MyriadPro-Regular-35" x="182.9"/></g></g><g id="ytick_5"><use xlink:href="#m7a61ecd8e6" x="44.644" y="140.44" style="stroke:#000;stroke-width:.8" id="line2d_11"/><g transform="matrix(.13 0 0 -.13 14.947 145.055)" id="text_11"><use xlink:href="#MyriadPro-Regular-30"/><use xlink:href="#MyriadPro-Regular-2e" x="51.3"/><use xlink:href="#MyriadPro-Regular-30" x="72"/><use xlink:href="#MyriadPro-Regular-30" x="123.3"/></g></g><g id="ytick_6"><use xlink:href="#m7a61ecd8e6" x="44.644" y="109.707" style="stroke:#000;stroke-width:.8" id="line2d_12"/><g transform="matrix(.13 0 0 -.13 14.947 114.322)" id="text_12"><use xlink:href="#MyriadPro-Regular-30"/><use xlink:href="#MyriadPro-Regular-2e" x="51.3"/><use xlink:href="#MyriadPro-Regular-32" x="72"/><use xlink:href="#MyriadPro-Regular-35" x="123.3"/></g></g><g id="ytick_7"><use xlink:href="#m7a61ecd8e6" x="44.644" y="78.974" style="stroke:#000;stroke-width:.8" id="line2d_13"/><g transform="matrix(.13 0 0 -.13 14.947 83.589)" id="text_13"><use xlink:href="#MyriadPro-Regular-30"/><use xlink:href="#MyriadPro-Regular-2e" x="51.3"/><use xlink:href="#MyriadPro-Regular-35" x="72"/><use xlink:href="#MyriadPro-Regular-30" x="123.3"/></g></g><g id="ytick_8"><use xlink:href="#m7a61ecd8e6" x="44.644" y="48.241" style="stroke:#000;stroke-width:.8" id="line2d_14"/><g transform="matrix(.13 0 0 -.13 14.947 52.856)" id="text_14"><use xlink:href="#MyriadPro-Regular-30"/><use xlink:href="#MyriadPro-Regular-2e" x="51.3"/><use xlink:href="#MyriadPro-Regular-37" x="72"/><use xlink:href="#MyriadPro-Regular-35" x="123.3"/></g></g><g id="ytick_9"><use xlink:href="#m7a61ecd8e6" x="44.644" y="17.507" style="stroke:#000;stroke-width:.8" id="line2d_15"/><g transform="matrix(.13 0 0 -.13 14.947 22.122)" id="text_15"><use xlink:href="#MyriadPro-Regular-31"/><use xlink:href="#MyriadPro-Regular-2e" x="51.3"/><use xlink:href="#MyriadPro-Regular-30" x="72"/><use xlink:href="#MyriadPro-Regular-30" x="123.3"/></g></g></g><g id="line2d_16"><defs><path id="m71cd30c20a" d="M0 3a3 3 0 1 0 0-6 3 3 0 0 0 0 6z" style="stroke:#1f77b4"/></defs><g clip-path="url(#pb7afa6c974)"><use xlink:href="#m71cd30c20a" x="60.877" y="140.44" style="fill:#1f77b4;stroke:#1f77b4"/><use xlink:href="#m71cd30c20a" x="93.343" y="61.245" style="fill:#1f77b4;stroke:#1f77b4"/><use xlink:href="#m71cd30c20a" x="125.808" y="19.296" style="fill:#1f77b4;stroke:#1f77b4"/><use xlink:href="#m71cd30c20a" x="158.273" y="34.323" style="fill:#1f77b4;stroke:#1f77b4"/><use xlink:href="#m71cd30c20a" x="190.739" y="99.259" style="fill:#1f77b4;stroke:#1f77b4"/><use xlink:href="#m71cd30c20a" x="223.204" y="183.563" style="fill:#1f77b4;stroke:#1f77b4"/><use xlink:href="#m71cd30c20a" x="255.67" y="247.586" style="fill:#1f77b4;stroke:#1f77b4"/><use xlink:href="#m71cd30c20a" x="288.135" y="261.216" style="fill:#1f77b4;stroke:#1f77b4"/><use xlink:href="#m71cd30c20a" x="320.601" y="218.044" style="fill:#1f77b4;stroke:#1f77b4"/><use xlink:href="#m71cd30c20a" x="353.066" y="138.373" style="fill:#1f77b4;stroke:#1f77b4"/><use xlink:href="#m71cd30c20a" x="385.532" y="59.675" style="fill:#1f77b4;stroke:#1f77b4"/></g></g><g id="line2d_17"><defs><path id="maa7e527335" d="M-3 0h6M0 3v-6" style="stroke:#ff7f0e"/></defs><g clip-path="url(#pb7afa6c974)"><use xlink:href="#maa7e527335" x="60.877" y="140.44" style="fill:#ff7f0e;stroke:#ff7f0e"/><use xlink:href="#maa7e527335" x="64.124" y="132.521" style="fill:#ff7f0e;stroke:#ff7f0e"/><use xlink:href="#maa7e527335" x="67.37" y="124.601" style="fill:#ff7f0e;stroke:#ff7f0e"/><use xlink:href="#maa7e527335" x="70.617" y="116.682" style="fill:#ff7f0e;stroke:#ff7f0e"/><use xlink:href="#maa7e527335" x="73.863" y="108.762" style="fill:#ff7f0e;stroke:#ff7f0e"/><use xlink:href="#maa7e527335" x="77.11" y="100.842" style="fill:#ff7f0e;stroke:#ff7f0e"/><use xlink:href="#maa7e527335" x="80.356" y="92.923" style="fill:#ff7f0e;stroke:#ff7f0e"/><use xlink:href="#maa7e527335" x="83.603" y="85.003" style="fill:#ff7f0e;stroke:#ff7f0e"/><use xlink:href="#maa7e527335" x="86.849" y="77.084" style="fill:#ff7f0e;stroke:#ff7f0e"/><use xlink:href="#maa7e527335" x="90.096" y="69.164" style="fill:#ff7f0e;stroke:#ff7f0e"/><use xlink:href="#maa7e527335" x="93.343" y="61.245" style="fill:#ff7f0e;stroke:#ff7f0e"/><use xlink:href="#maa7e527335" x="96.589" y="57.05" style="fill:#ff7f0e;stroke:#ff7f0e"/><use xlink:href="#maa7e527335" x="99.836" y="52.855" style="fill:#ff7f0e;stroke:#ff7f0e"/><use xlink:href="#maa7e527335" x="103.082" y="48.66" style="fill:#ff7f0e;stroke:#ff7f0e"/><use xlink:href="#maa7e527335" x="106.329" y="44.465" style="fill:#ff7f0e;stroke:#ff7f0e"/><use xlink:href="#maa7e527335" x="109.575" y="40.27" style="fill:#ff7f0e;stroke:#ff7f0e"/><use xlink:href="#maa7e527335" x="112.822" y="36.075" style="fill:#ff7f0e;stroke:#ff7f0e"/><use xlink:href="#maa7e527335" x="116.068" y="31.881" style="fill:#ff7f0e;stroke:#ff7f0e"/><use xlink:href="#maa7e527335" x="119.315" y="27.686" style="fill:#ff7f0e;stroke:#ff7f0e"/><use xlink:href="#maa7e527335" x="122.561" y="23.491" style="fill:#ff7f0e;stroke:#ff7f0e"/><use xlink:href="#maa7e527335" x="125.808" y="19.296" style="fill:#ff7f0e;stroke:#ff7f0e"/><use xlink:href="#maa7e527335" x="129.055" y="20.799" style="fill:#ff7f0e;stroke:#ff7f0e"/><use xlink:href="#maa7e527335" x="132.301" y="22.301" style="fill:#ff7f0e;stroke:#ff7f0e"/><use xlink:href="#maa7e527335" x="135.548" y="23.804" style="fill:#ff7f0e;stroke:#ff7f0e"/><use xlink:href="#maa7e527335" x="138.794" y="25.307" style="fill:#ff7f0e;stroke:#ff7f0e"/><use xlink:href="#maa7e527335" x="142.041" y="26.81" style="fill:#ff7f0e;stroke:#ff7f0e"/><use xlink:href="#maa7e527335" x="145.287" y="28.312" style="fill:#ff7f0e;stroke:#ff7f0e"/><use xlink:href="#maa7e527335" x="148.534" y="29.815" style="fill:#ff7f0e;stroke:#ff7f0e"/><use xlink:href="#maa7e527335" x="151.78" y="31.318" style="fill:#ff7f0e;stroke:#ff7f0e"/><use xlink:href="#maa7e527335" x="155.027" y="32.821" style="fill:#ff7f0e;stroke:#ff7f0e"/><use xlink:href="#maa7e527335" x="158.273" y="34.323" style="fill:#ff7f0e;stroke:#ff7f0e"/><use xlink:href="#maa7e527335" x="161.52" y="40.817" style="fill:#ff7f0e;stroke:#ff7f0e"/><use xlink:href="#maa7e527335" x="164.767" y="47.311" style="fill:#ff7f0e;stroke:#ff7f0e"/><use xlink:href="#maa7e527335" x="168.013" y="53.804" style="fill:#ff7f0e;stroke:#ff7f0e"/><use xlink:href="#maa7e527335" x="171.26" y="60.298" style="fill:#ff7f0e;stroke:#ff7f0e"/><use xlink:href="#maa7e527335" x="174.506" y="66.791" style="fill:#ff7f0e;stroke:#ff7f0e"/><use xlink:href="#maa7e527335" x="177.753" y="73.285" style="fill:#ff7f0e;stroke:#ff7f0e"/><use xlink:href="#maa7e527335" x="180.999" y="79.778" style="fill:#ff7f0e;stroke:#ff7f0e"/><use xlink:href="#maa7e527335" x="184.246" y="86.272" style="fill:#ff7f0e;stroke:#ff7f0e"/><use xlink:href="#maa7e527335" x="187.492" y="92.766" style="fill:#ff7f0e;stroke:#ff7f0e"/><use xlink:href="#maa7e527335" x="190.739" y="99.259" style="fill:#ff7f0e;stroke:#ff7f0e"/><use xlink:href="#maa7e527335" x="193.985" y="107.69" style="fill:#ff7f0e;stroke:#ff7f0e"/><use xlink:href="#maa7e527335" x="197.232" y="116.12" style="fill:#ff7f0e;stroke:#ff7f0e"/><use xlink:href="#maa7e527335" x="200.479" y="124.55" style="fill:#ff7f0e;stroke:#ff7f0e"/><use xlink:href="#maa7e527335" x="203.725" y="132.981" style="fill:#ff7f0e;stroke:#ff7f0e"/><use xlink:href="#maa7e527335" x="206.972" y="141.411" style="fill:#ff7f0e;stroke:#ff7f0e"/><use xlink:href="#maa7e527335" x="210.218" y="149.841" style="fill:#ff7f0e;stroke:#ff7f0e"/><use xlink:href="#maa7e527335" x="213.465" y="158.272" style="fill:#ff7f0e;stroke:#ff7f0e"/><use xlink:href="#maa7e527335" x="216.711" y="166.702" style="fill:#ff7f0e;stroke:#ff7f0e"/><use xlink:href="#maa7e527335" x="219.958" y="175.133" style="fill:#ff7f0e;stroke:#ff7f0e"/><use xlink:href="#maa7e527335" x="223.204" y="183.563" style="fill:#ff7f0e;stroke:#ff7f0e"/><use xlink:href="#maa7e527335" x="226.451" y="189.965" style="fill:#ff7f0e;stroke:#ff7f0e"/><use xlink:href="#maa7e527335" x="229.697" y="196.368" style="fill:#ff7f0e;stroke:#ff7f0e"/><use xlink:href="#maa7e527335" x="232.944" y="202.77" style="fill:#ff7f0e;stroke:#ff7f0e"/><use xlink:href="#maa7e527335" x="236.191" y="209.172" style="fill:#ff7f0e;stroke:#ff7f0e"/><use xlink:href="#maa7e527335" x="239.437" y="215.574" style="fill:#ff7f0e;stroke:#ff7f0e"/><use xlink:href="#maa7e527335" x="242.684" y="221.977" style="fill:#ff7f0e;stroke:#ff7f0e"/><use xlink:href="#maa7e527335" x="245.93" y="228.379" style="fill:#ff7f0e;stroke:#ff7f0e"/><use xlink:href="#maa7e527335" x="249.177" y="234.781" style="fill:#ff7f0e;stroke:#ff7f0e"/><use xlink:href="#maa7e527335" x="252.423" y="241.183" style="fill:#ff7f0e;stroke:#ff7f0e"/><use xlink:href="#maa7e527335" x="255.67" y="247.586" style="fill:#ff7f0e;stroke:#ff7f0e"/><use xlink:href="#maa7e527335" x="258.916" y="248.949" style="fill:#ff7f0e;stroke:#ff7f0e"/><use xlink:href="#maa7e527335" x="262.163" y="250.312" style="fill:#ff7f0e;stroke:#ff7f0e"/><use xlink:href="#maa7e527335" x="265.409" y="251.675" style="fill:#ff7f0e;stroke:#ff7f0e"/><use xlink:href="#maa7e527335" x="268.656" y="253.038" style="fill:#ff7f0e;stroke:#ff7f0e"/><use xlink:href="#maa7e527335" x="271.903" y="254.401" style="fill:#ff7f0e;stroke:#ff7f0e"/><use xlink:href="#maa7e527335" x="275.149" y="255.764" style="fill:#ff7f0e;stroke:#ff7f0e"/><use xlink:href="#maa7e527335" x="278.396" y="257.127" style="fill:#ff7f0e;stroke:#ff7f0e"/><use xlink:href="#maa7e527335" x="281.642" y="258.49" style="fill:#ff7f0e;stroke:#ff7f0e"/><use xlink:href="#maa7e527335" x="284.889" y="259.853" style="fill:#ff7f0e;stroke:#ff7f0e"/><use xlink:href="#maa7e527335" x="288.135" y="261.216" style="fill:#ff7f0e;stroke:#ff7f0e"/><use xlink:href="#maa7e527335" x="291.382" y="256.899" style="fill:#ff7f0e;stroke:#ff7f0e"/><use xlink:href="#maa7e527335" x="294.628" y="252.582" style="fill:#ff7f0e;stroke:#ff7f0e"/><use xlink:href="#maa7e527335" x="297.875" y="248.264" style="fill:#ff7f0e;stroke:#ff7f0e"/><use xlink:href="#maa7e527335" x="301.121" y="243.947" style="fill:#ff7f0e;stroke:#ff7f0e"/><use xlink:href="#maa7e527335" x="304.368" y="239.63" style="fill:#ff7f0e;stroke:#ff7f0e"/><use xlink:href="#maa7e527335" x="307.615" y="235.313" style="fill:#ff7f0e;stroke:#ff7f0e"/><use xlink:href="#maa7e527335" x="310.861" y="230.995" style="fill:#ff7f0e;stroke:#ff7f0e"/><use xlink:href="#maa7e527335" x="314.108" y="226.678" style="fill:#ff7f0e;stroke:#ff7f0e"/><use xlink:href="#maa7e527335" x="317.354" y="222.361" style="fill:#ff7f0e;stroke:#ff7f0e"/><use xlink:href="#maa7e527335" x="320.601" y="218.044" style="fill:#ff7f0e;stroke:#ff7f0e"/><use xlink:href="#maa7e527335" x="323.847" y="210.077" style="fill:#ff7f0e;stroke:#ff7f0e"/><use xlink:href="#maa7e527335" x="327.094" y="202.11" style="fill:#ff7f0e;stroke:#ff7f0e"/><use xlink:href="#maa7e527335" x="330.34" y="194.143" style="fill:#ff7f0e;stroke:#ff7f0e"/><use xlink:href="#maa7e527335" x="333.587" y="186.176" style="fill:#ff7f0e;stroke:#ff7f0e"/><use xlink:href="#maa7e527335" x="336.833" y="178.208" style="fill:#ff7f0e;stroke:#ff7f0e"/><use xlink:href="#maa7e527335" x="340.08" y="170.241" style="fill:#ff7f0e;stroke:#ff7f0e"/><use xlink:href="#maa7e527335" x="343.327" y="162.274" style="fill:#ff7f0e;stroke:#ff7f0e"/><use xlink:href="#maa7e527335" x="346.573" y="154.307" style="fill:#ff7f0e;stroke:#ff7f0e"/><use xlink:href="#maa7e527335" x="349.82" y="146.34" style="fill:#ff7f0e;stroke:#ff7f0e"/><use xlink:href="#maa7e527335" x="353.066" y="138.373" style="fill:#ff7f0e;stroke:#ff7f0e"/><use xlink:href="#maa7e527335" x="356.313" y="130.503" style="fill:#ff7f0e;stroke:#ff7f0e"/><use xlink:href="#maa7e527335" x="359.559" y="122.634" style="fill:#ff7f0e;stroke:#ff7f0e"/><use xlink:href="#maa7e527335" x="362.806" y="114.764" style="fill:#ff7f0e;stroke:#ff7f0e"/><use xlink:href="#maa7e527335" x="366.052" y="106.894" style="fill:#ff7f0e;stroke:#ff7f0e"/><use xlink:href="#maa7e527335" x="369.299" y="99.024" style="fill:#ff7f0e;stroke:#ff7f0e"/><use xlink:href="#maa7e527335" x="372.545" y="91.154" style="fill:#ff7f0e;stroke:#ff7f0e"/><use xlink:href="#maa7e527335" x="375.792" y="83.284" style="fill:#ff7f0e;stroke:#ff7f0e"/><use xlink:href="#maa7e527335" x="379.039" y="75.415" style="fill:#ff7f0e;stroke:#ff7f0e"/><use xlink:href="#maa7e527335" x="382.285" y="67.545" style="fill:#ff7f0e;stroke:#ff7f0e"/><use xlink:href="#maa7e527335" x="385.532" y="59.675" style="fill:#ff7f0e;stroke:#ff7f0e"/></g></g><path d="M44.644 273.312V7.2" style="fill:none;stroke:#000;stroke-width:.8;stroke-linejoin:miter;stroke-linecap:square" id="patch_3"/><path d="M401.764 273.312V7.2" style="fill:none;stroke:#000;stroke-width:.8;stroke-linejoin:miter;stroke-linecap:square" id="patch_4"/><path d="M44.644 273.312h357.12" style="fill:none;stroke:#000;stroke-width:.8;stroke-linejoin:miter;stroke-linecap:square" id="patch_5"/><path d="M44.644 7.2h357.12" style="fill:none;stroke:#000;stroke-width:.8;stroke-linejoin:miter;stroke-linecap:square" id="patch_6"/></g></g><defs><clipPath id="pb7afa6c974"><path d="M44.644 7.2h357.12v266.112H44.644z"/></clipPath></defs></svg>