<svg xmlns:xlink="http://www.w3.org/1999/xlink" width="545.286" height="399.087" viewBox="0 0 408.964 299.316" xmlns="http://www.w3.org/2000/svg"><defs><style>*{stroke-linejoin:round;stroke-linecap:butt}</style></defs><g id="figure_1"><path d="M0 299.316h408.964V0H0v299.316z" style="fill:none" id="patch_1"/><g id="axes_1"><path d="M44.644 273.312h357.12V7.2H44.644v266.112z" style="fill:none" id="patch_2"/><g id="matplotlib.axis_1"><g id="xtick_1"><g id="line2d_1"><defs><path id="mbc4b4b4a30" d="M0 0v3.5" style="stroke:#000;stroke-width:.8"/></defs><use xlink:href="#mbc4b4b4a30" x="60.877" y="273.312" style="stroke:#000;stroke-width:.8"/></g><g transform="matrix(.13 0 0 -.13 52.863 289.542)" id="text_1"><defs><path id="MyriadPro-Regular-30" d="M1677 4230c-845 0-1447-768-1447-2163C243 691 794-70 1606-70c922 0 1447 780 1447 2195 0 1325-499 2105-1376 2105zm-32-435c582 0 845-672 845-1696 0-1062-276-1734-852-1734-512 0-844 614-844 1696 0 1133 358 1734 851 1734z" transform="scale(.01563)"/><path id="MyriadPro-Regular-2e" d="M710-70c237 0 384 172 384 403 0 237-153 403-377 403S333 570 333 333c0-231 153-403 371-403h6z" transform="scale(.01563)"/></defs><use xlink:href="#MyriadPro-Regular-30"/><use xlink:href="#MyriadPro-Regular-2e" x="51.3"/><use xlink:href="#MyriadPro-Regular-30" x="72"/></g></g><g id="xtick_2"><use xlink:href="#mbc4b4b4a30" x="125.808" y="273.312" style="stroke:#000;stroke-width:.8" id="line2d_2"/><g transform="matrix(.13 0 0 -.13 117.794 289.542)" id="text_2"><defs><path id="MyriadPro-Regular-32" d="M2944 0v467H1075v13l333 307c877 845 1434 1466 1434 2234 0 595-378 1209-1274 1209-480 0-890-179-1178-422l180-397c192 160 505 352 883 352 621 0 825-390 825-813-6-627-486-1164-1548-2176L288 346V0h2656z" transform="scale(.01563)"/></defs><use xlink:href="#MyriadPro-Regular-30"/><use xlink:href="#MyriadPro-Regular-2e" x="51.3"/><use xlink:href="#MyriadPro-Regular-32" x="72"/></g></g><g id="xtick_3"><use xlink:href="#mbc4b4b4a30" x="190.739" y="273.312" style="stroke:#000;stroke-width:.8" id="line2d_3"/><g transform="matrix(.13 0 0 -.13 182.725 289.542)" id="text_3"><defs><path id="MyriadPro-Regular-34" d="M2560 0v1133h582v441h-582v2586h-608L96 1504v-371h1933V0h531zM666 1574v13l1017 1415c115 192 218 371 346 614h19c-13-218-19-435-19-653V1574H666z" transform="scale(.01563)"/></defs><use xlink:href="#MyriadPro-Regular-30"/><use xlink:href="#MyriadPro-Regular-2e" x="51.3"/><use xlink:href="#MyriadPro-Regular-34" x="72"/></g></g><g id="xtick_4"><use xlink:href="#mbc4b4b4a30" x="255.67" y="273.312" style="stroke:#000;stroke-width:.8" id="line2d_4"/><g transform="matrix(.13 0 0 -.13 247.656 289.542)" id="text_4"><defs><path id="MyriadPro-Regular-36" d="M2662 4224c-102 0-243-6-409-32-525-64-986-275-1331-614-410-410-704-1056-704-1876C218 621 800-70 1690-70c864 0 1382 704 1382 1465 0 813-518 1344-1254 1344-461 0-807-217-1005-480h-19c96 685 563 1331 1446 1479 160 25 307 32 422 25v461zM1690 365c-589 0-903 505-916 1190 0 103 26 186 64 250 154 301 468 512 807 512 518 0 857-359 857-954s-326-998-806-998h-6z" transform="scale(.01563)"/></defs><use xlink:href="#MyriadPro-Regular-30"/><use xlink:href="#MyriadPro-Regular-2e" x="51.3"/><use xlink:href="#MyriadPro-Regular-36" x="72"/></g></g><g id="xtick_5"><use xlink:href="#mbc4b4b4a30" x="320.601" y="273.312" style="stroke:#000;stroke-width:.8" id="line2d_5"/><g transform="matrix(.13 0 0 -.13 312.586 289.542)" id="text_5"><defs><path id="MyriadPro-Regular-38" d="M1062 2170c-512-218-825-589-825-1114C237 448 762-70 1632-70c794 0 1414 486 1414 1209 0 506-320 871-838 1075v20c512 243 685 620 685 972 0 519-403 1024-1210 1024-729 0-1286-448-1286-1107 0-358 198-717 659-934l6-19zm583-1831c-531 0-851 371-832 794 0 397 262 717 749 857 563-160 915-403 915-908 0-423-327-743-832-743zm6 3488c506 0 704-345 704-678 0-378-275-634-633-755-480 128-794 352-794 768 0 358 256 665 723 665z" transform="scale(.01563)"/></defs><use xlink:href="#MyriadPro-Regular-30"/><use xlink:href="#MyriadPro-Regular-2e" x="51.3"/><use xlink:href="#MyriadPro-Regular-38" x="72"/></g></g><g id="xtick_6"><use xlink:href="#mbc4b4b4a30" x="385.532" y="273.312" style="stroke:#000;stroke-width:.8" id="line2d_6"/><g transform="matrix(.13 0 0 -.13 377.517 289.542)" id="text_6"><defs><path id="MyriadPro-Regular-31" d="M1510 0h544v4160h-480l-908-486 108-429 724 390h12V0z" transform="scale(.01563)"/></defs><use xlink:href="#MyriadPro-Regular-31"/><use xlink:href="#MyriadPro-Regular-2e" x="51.3"/><use xlink:href="#MyriadPro-Regular-30" x="72"/></g></g></g><g id="matplotlib.axis_2"><g id="ytick_1"><g id="line2d_7"><defs><path id="mc4f7c60a4d" d="M0 0h-3.5" style="stroke:#000;stroke-width:.8"/></defs><use xlink:href="#mc4f7c60a4d" x="44.644" y="261.494" style="stroke:#000;stroke-width:.8"/></g><g transform="matrix(.13 0 0 -.13 7.2 266.109)" id="text_7"><defs><path id="MyriadPro-Regular-2212" d="M256 1901v-384h3302v384H256z" transform="scale(.01563)"/></defs><use xlink:href="#MyriadPro-Regular-2212"/><use xlink:href="#MyriadPro-Regular-31" x="59.6"/><use xlink:href="#MyriadPro-Regular-2e" x="110.9"/><use xlink:href="#MyriadPro-Regular-30" x="131.6"/><use xlink:href="#MyriadPro-Regular-30" x="182.9"/></g></g><g id="ytick_2"><use xlink:href="#mc4f7c60a4d" x="44.644" y="231.19" style="stroke:#000;stroke-width:.8" id="line2d_8"/><g transform="matrix(.13 0 0 -.13 7.2 235.805)" id="text_8"><defs><path id="MyriadPro-Regular-37" d="M365 4160v-467h2035v-13L595 0h583l1811 3789v371H365z" transform="scale(.01563)"/><path id="MyriadPro-Regular-35" d="M2771 4160H781L512 2163c154 19 339 45 576 45 832 0 1190-384 1197-922 0-556-455-902-986-902-377 0-717 128-889 230L269 186C467 58 851-70 1306-70c902 0 1548 608 1548 1420 0 525-268 884-595 1069-256 154-576 224-896 224-153 0-243-13-339-25l160 1068h1587v474z" transform="scale(.01563)"/></defs><use xlink:href="#MyriadPro-Regular-2212"/><use xlink:href="#MyriadPro-Regular-30" x="59.6"/><use xlink:href="#MyriadPro-Regular-2e" x="110.9"/><use xlink:href="#MyriadPro-Regular-37" x="131.6"/><use xlink:href="#MyriadPro-Regular-35" x="182.9"/></g></g><g id="ytick_3"><use xlink:href="#mc4f7c60a4d" x="44.644" y="200.886" style="stroke:#000;stroke-width:.8" id="line2d_9"/><g transform="matrix(.13 0 0 -.13 7.2 205.501)" id="text_9"><use xlink:href="#MyriadPro-Regular-2212"/><use xlink:href="#MyriadPro-Regular-30" x="59.6"/><use xlink:href="#MyriadPro-Regular-2e" x="110.9"/><use xlink:href="#MyriadPro-Regular-35" x="131.6"/><use xlink:href="#MyriadPro-Regular-30" x="182.9"/></g></g><g id="ytick_4"><use xlink:href="#mc4f7c60a4d" x="44.644" y="170.582" style="stroke:#000;stroke-width:.8" id="line2d_10"/><g transform="matrix(.13 0 0 -.13 7.2 175.197)" id="text_10"><use xlink:href="#MyriadPro-Regular-2212"/><use xlink:href="#MyriadPro-Regular-30" x="59.6"/><use xlink:href="#MyriadPro-Regular-2e" x="110.9"/><use xlink:href="#MyriadPro-Regular-32" x="131.6"/><use xlink:href="#MyriadPro-Regular-35" x="182.9"/></g></g><g id="ytick_5"><use xlink:href="#mc4f7c60a4d" x="44.644" y="140.279" style="stroke:#000;stroke-width:.8" id="line2d_11"/><g transform="matrix(.13 0 0 -.13 14.947 144.894)" id="text_11"><use xlink:href="#MyriadPro-Regular-30"/><use xlink:href="#MyriadPro-Regular-2e" x="51.3"/><use xlink:href="#MyriadPro-Regular-30" x="72"/><use xlink:href="#MyriadPro-Regular-30" x="123.3"/></g></g><g id="ytick_6"><use xlink:href="#mc4f7c60a4d" x="44.644" y="109.975" style="stroke:#000;stroke-width:.8" id="line2d_12"/><g transform="matrix(.13 0 0 -.13 14.947 114.59)" id="text_12"><use xlink:href="#MyriadPro-Regular-30"/><use xlink:href="#MyriadPro-Regular-2e" x="51.3"/><use xlink:href="#MyriadPro-Regular-32" x="72"/><use xlink:href="#MyriadPro-Regular-35" x="123.3"/></g></g><g id="ytick_7"><use xlink:href="#mc4f7c60a4d" x="44.644" y="79.671" style="stroke:#000;stroke-width:.8" id="line2d_13"/><g transform="matrix(.13 0 0 -.13 14.947 84.286)" id="text_13"><use xlink:href="#MyriadPro-Regular-30"/><use xlink:href="#MyriadPro-Regular-2e" x="51.3"/><use xlink:href="#MyriadPro-Regular-35" x="72"/><use xlink:href="#MyriadPro-Regular-30" x="123.3"/></g></g><g id="ytick_8"><use xlink:href="#mc4f7c60a4d" x="44.644" y="49.367" style="stroke:#000;stroke-width:.8" id="line2d_14"/><g transform="matrix(.13 0 0 -.13 14.947 53.982)" id="text_14"><use xlink:href="#MyriadPro-Regular-30"/><use xlink:href="#MyriadPro-Regular-2e" x="51.3"/><use xlink:href="#MyriadPro-Regular-37" x="72"/><use xlink:href="#MyriadPro-Regular-35" x="123.3"/></g></g><g id="ytick_9"><use xlink:href="#mc4f7c60a4d" x="44.644" y="19.063" style="stroke:#000;stroke-width:.8" id="line2d_15"/><g transform="matrix(.13 0 0 -.13 14.947 23.678)" id="text_15"><use xlink:href="#MyriadPro-Regular-31"/><use xlink:href="#MyriadPro-Regular-2e" x="51.3"/><use xlink:href="#MyriadPro-Regular-30" x="72"/><use xlink:href="#MyriadPro-Regular-30" x="123.3"/></g></g></g><g id="line2d_16"><defs><path id="m4350093ea0" d="M0 3a3 3 0 1 0 0-6 3 3 0 0 0 0 6z" style="stroke:#1f77b4"/></defs><g clip-path="url(#pf208bbf5ac)"><use xlink:href="#m4350093ea0" x="60.877" y="140.279" style="fill:#1f77b4;stroke:#1f77b4"/><use xlink:href="#m4350093ea0" x="93.343" y="62.19" style="fill:#1f77b4;stroke:#1f77b4"/><use xlink:href="#m4350093ea0" x="125.808" y="20.827" style="fill:#1f77b4;stroke:#1f77b4"/><use xlink:href="#m4350093ea0" x="158.273" y="35.644" style="fill:#1f77b4;stroke:#1f77b4"/><use xlink:href="#m4350093ea0" x="190.739" y="99.673" style="fill:#1f77b4;stroke:#1f77b4"/><use xlink:href="#m4350093ea0" x="223.204" y="182.799" style="fill:#1f77b4;stroke:#1f77b4"/><use xlink:href="#m4350093ea0" x="255.67" y="245.927" style="fill:#1f77b4;stroke:#1f77b4"/><use xlink:href="#m4350093ea0" x="288.135" y="259.367" style="fill:#1f77b4;stroke:#1f77b4"/><use xlink:href="#m4350093ea0" x="320.601" y="216.798" style="fill:#1f77b4;stroke:#1f77b4"/><use xlink:href="#m4350093ea0" x="353.066" y="138.241" style="fill:#1f77b4;stroke:#1f77b4"/><use xlink:href="#m4350093ea0" x="385.532" y="60.642" style="fill:#1f77b4;stroke:#1f77b4"/></g></g><g id="line2d_17"><defs><path id="m308a118117" d="M-3 0h6M0 3v-6" style="stroke:#ff7f0e"/></defs><g clip-path="url(#pf208bbf5ac)"><use xlink:href="#m308a118117" x="60.877" y="140.279" style="fill:#ff7f0e;stroke:#ff7f0e"/><use xlink:href="#m308a118117" x="64.124" y="130.817" style="fill:#ff7f0e;stroke:#ff7f0e"/><use xlink:href="#m308a118117" x="67.37" y="121.723" style="fill:#ff7f0e;stroke:#ff7f0e"/><use xlink:href="#m308a118117" x="70.617" y="112.996" style="fill:#ff7f0e;stroke:#ff7f0e"/><use xlink:href="#m308a118117" x="73.863" y="104.636" style="fill:#ff7f0e;stroke:#ff7f0e"/><use xlink:href="#m308a118117" x="77.11" y="96.643" style="fill:#ff7f0e;stroke:#ff7f0e"/><use xlink:href="#m308a118117" x="80.356" y="89.018" style="fill:#ff7f0e;stroke:#ff7f0e"/><use xlink:href="#m308a118117" x="83.603" y="81.76" style="fill:#ff7f0e;stroke:#ff7f0e"/><use xlink:href="#m308a118117" x="86.849" y="74.869" style="fill:#ff7f0e;stroke:#ff7f0e"/><use xlink:href="#m308a118117" x="90.096" y="68.346" style="fill:#ff7f0e;stroke:#ff7f0e"/><use xlink:href="#m308a118117" x="93.343" y="62.19" style="fill:#ff7f0e;stroke:#ff7f0e"/><use xlink:href="#m308a118117" x="96.589" y="56.401" style="fill:#ff7f0e;stroke:#ff7f0e"/><use xlink:href="#m308a118117" x="99.836" y="50.979" style="fill:#ff7f0e;stroke:#ff7f0e"/><use xlink:href="#m308a118117" x="103.082" y="45.924" style="fill:#ff7f0e;stroke:#ff7f0e"/><use xlink:href="#m308a118117" x="106.329" y="41.237" style="fill:#ff7f0e;stroke:#ff7f0e"/><use xlink:href="#m308a118117" x="109.575" y="36.917" style="fill:#ff7f0e;stroke:#ff7f0e"/><use xlink:href="#m308a118117" x="112.822" y="30.63" style="fill:#ff7f0e;stroke:#ff7f0e"/><use xlink:href="#m308a118117" x="116.068" y="27.337" style="fill:#ff7f0e;stroke:#ff7f0e"/><use xlink:href="#m308a118117" x="119.315" y="24.605" style="fill:#ff7f0e;stroke:#ff7f0e"/><use xlink:href="#m308a118117" x="122.561" y="22.435" style="fill:#ff7f0e;stroke:#ff7f0e"/><use xlink:href="#m308a118117" x="125.808" y="20.827" style="fill:#ff7f0e;stroke:#ff7f0e"/><use xlink:href="#m308a118117" x="129.055" y="19.781" style="fill:#ff7f0e;stroke:#ff7f0e"/><use xlink:href="#m308a118117" x="132.301" y="19.296" style="fill:#ff7f0e;stroke:#ff7f0e"/><use xlink:href="#m308a118117" x="135.548" y="19.373" style="fill:#ff7f0e;stroke:#ff7f0e"/><use xlink:href="#m308a118117" x="138.794" y="20.012" style="fill:#ff7f0e;stroke:#ff7f0e"/><use xlink:href="#m308a118117" x="142.041" y="22.084" style="fill:#ff7f0e;stroke:#ff7f0e"/><use xlink:href="#m308a118117" x="145.287" y="23.812" style="fill:#ff7f0e;stroke:#ff7f0e"/><use xlink:href="#m308a118117" x="148.534" y="26.032" style="fill:#ff7f0e;stroke:#ff7f0e"/><use xlink:href="#m308a118117" x="151.78" y="28.744" style="fill:#ff7f0e;stroke:#ff7f0e"/><use xlink:href="#m308a118117" x="155.027" y="31.948" style="fill:#ff7f0e;stroke:#ff7f0e"/><use xlink:href="#m308a118117" x="158.273" y="35.644" style="fill:#ff7f0e;stroke:#ff7f0e"/><use xlink:href="#m308a118117" x="161.52" y="39.833" style="fill:#ff7f0e;stroke:#ff7f0e"/><use xlink:href="#m308a118117" x="164.767" y="44.513" style="fill:#ff7f0e;stroke:#ff7f0e"/><use xlink:href="#m308a118117" x="168.013" y="49.686" style="fill:#ff7f0e;stroke:#ff7f0e"/><use xlink:href="#m308a118117" x="171.26" y="55.35" style="fill:#ff7f0e;stroke:#ff7f0e"/><use xlink:href="#m308a118117" x="174.506" y="65.271" style="fill:#ff7f0e;stroke:#ff7f0e"/><use xlink:href="#m308a118117" x="177.753" y="71.77" style="fill:#ff7f0e;stroke:#ff7f0e"/><use xlink:href="#m308a118117" x="180.999" y="78.459" style="fill:#ff7f0e;stroke:#ff7f0e"/><use xlink:href="#m308a118117" x="184.246" y="85.339" style="fill:#ff7f0e;stroke:#ff7f0e"/><use xlink:href="#m308a118117" x="187.492" y="92.411" style="fill:#ff7f0e;stroke:#ff7f0e"/><use xlink:href="#m308a118117" x="190.739" y="99.673" style="fill:#ff7f0e;stroke:#ff7f0e"/><use xlink:href="#m308a118117" x="193.985" y="107.126" style="fill:#ff7f0e;stroke:#ff7f0e"/><use xlink:href="#m308a118117" x="197.232" y="114.77" style="fill:#ff7f0e;stroke:#ff7f0e"/><use xlink:href="#m308a118117" x="200.479" y="122.605" style="fill:#ff7f0e;stroke:#ff7f0e"/><use xlink:href="#m308a118117" x="203.725" y="130.632" style="fill:#ff7f0e;stroke:#ff7f0e"/><use xlink:href="#m308a118117" x="206.972" y="143.736" style="fill:#ff7f0e;stroke:#ff7f0e"/><use xlink:href="#m308a118117" x="210.218" y="151.948" style="fill:#ff7f0e;stroke:#ff7f0e"/><use xlink:href="#m308a118117" x="213.465" y="159.961" style="fill:#ff7f0e;stroke:#ff7f0e"/><use xlink:href="#m308a118117" x="216.711" y="167.774" style="fill:#ff7f0e;stroke:#ff7f0e"/><use xlink:href="#m308a118117" x="219.958" y="175.386" style="fill:#ff7f0e;stroke:#ff7f0e"/><use xlink:href="#m308a118117" x="223.204" y="182.799" style="fill:#ff7f0e;stroke:#ff7f0e"/><use xlink:href="#m308a118117" x="226.451" y="190.012" style="fill:#ff7f0e;stroke:#ff7f0e"/><use xlink:href="#m308a118117" x="229.697" y="197.024" style="fill:#ff7f0e;stroke:#ff7f0e"/><use xlink:href="#m308a118117" x="232.944" y="203.837" style="fill:#ff7f0e;stroke:#ff7f0e"/><use xlink:href="#m308a118117" x="236.191" y="210.45" style="fill:#ff7f0e;stroke:#ff7f0e"/><use xlink:href="#m308a118117" x="239.437" y="220.574" style="fill:#ff7f0e;stroke:#ff7f0e"/><use xlink:href="#m308a118117" x="242.684" y="226.638" style="fill:#ff7f0e;stroke:#ff7f0e"/><use xlink:href="#m308a118117" x="245.93" y="232.206" style="fill:#ff7f0e;stroke:#ff7f0e"/><use xlink:href="#m308a118117" x="249.177" y="237.276" style="fill:#ff7f0e;stroke:#ff7f0e"/><use xlink:href="#m308a118117" x="252.423" y="241.85" style="fill:#ff7f0e;stroke:#ff7f0e"/><use xlink:href="#m308a118117" x="255.67" y="245.927" style="fill:#ff7f0e;stroke:#ff7f0e"/><use xlink:href="#m308a118117" x="258.916" y="249.507" style="fill:#ff7f0e;stroke:#ff7f0e"/><use xlink:href="#m308a118117" x="262.163" y="252.59" style="fill:#ff7f0e;stroke:#ff7f0e"/><use xlink:href="#m308a118117" x="265.409" y="255.176" style="fill:#ff7f0e;stroke:#ff7f0e"/><use xlink:href="#m308a118117" x="268.656" y="257.266" style="fill:#ff7f0e;stroke:#ff7f0e"/><use xlink:href="#m308a118117" x="271.903" y="258.858" style="fill:#ff7f0e;stroke:#ff7f0e"/><use xlink:href="#m308a118117" x="275.149" y="260.712" style="fill:#ff7f0e;stroke:#ff7f0e"/><use xlink:href="#m308a118117" x="278.396" y="261.216" style="fill:#ff7f0e;stroke:#ff7f0e"/><use xlink:href="#m308a118117" x="281.642" y="261.16" style="fill:#ff7f0e;stroke:#ff7f0e"/><use xlink:href="#m308a118117" x="284.889" y="260.543" style="fill:#ff7f0e;stroke:#ff7f0e"/><use xlink:href="#m308a118117" x="288.135" y="259.367" style="fill:#ff7f0e;stroke:#ff7f0e"/><use xlink:href="#m308a118117" x="291.382" y="257.631" style="fill:#ff7f0e;stroke:#ff7f0e"/><use xlink:href="#m308a118117" x="294.628" y="255.334" style="fill:#ff7f0e;stroke:#ff7f0e"/><use xlink:href="#m308a118117" x="297.875" y="252.477" style="fill:#ff7f0e;stroke:#ff7f0e"/><use xlink:href="#m308a118117" x="301.121" y="249.06" style="fill:#ff7f0e;stroke:#ff7f0e"/><use xlink:href="#m308a118117" x="304.368" y="242.581" style="fill:#ff7f0e;stroke:#ff7f0e"/><use xlink:href="#m308a118117" x="307.615" y="238.144" style="fill:#ff7f0e;stroke:#ff7f0e"/><use xlink:href="#m308a118117" x="310.861" y="233.347" style="fill:#ff7f0e;stroke:#ff7f0e"/><use xlink:href="#m308a118117" x="314.108" y="228.191" style="fill:#ff7f0e;stroke:#ff7f0e"/><use xlink:href="#m308a118117" x="317.354" y="222.674" style="fill:#ff7f0e;stroke:#ff7f0e"/><use xlink:href="#m308a118117" x="320.601" y="216.798" style="fill:#ff7f0e;stroke:#ff7f0e"/><use xlink:href="#m308a118117" x="323.847" y="210.562" style="fill:#ff7f0e;stroke:#ff7f0e"/><use xlink:href="#m308a118117" x="327.094" y="203.965" style="fill:#ff7f0e;stroke:#ff7f0e"/><use xlink:href="#m308a118117" x="330.34" y="197.009" style="fill:#ff7f0e;stroke:#ff7f0e"/><use xlink:href="#m308a118117" x="333.587" y="189.694" style="fill:#ff7f0e;stroke:#ff7f0e"/><use xlink:href="#m308a118117" x="336.833" y="182.018" style="fill:#ff7f0e;stroke:#ff7f0e"/><use xlink:href="#m308a118117" x="340.08" y="169.548" style="fill:#ff7f0e;stroke:#ff7f0e"/><use xlink:href="#m308a118117" x="343.327" y="161.707" style="fill:#ff7f0e;stroke:#ff7f0e"/><use xlink:href="#m308a118117" x="346.573" y="153.875" style="fill:#ff7f0e;stroke:#ff7f0e"/><use xlink:href="#m308a118117" x="349.82" y="146.053" style="fill:#ff7f0e;stroke:#ff7f0e"/><use xlink:href="#m308a118117" x="353.066" y="138.241" style="fill:#ff7f0e;stroke:#ff7f0e"/><use xlink:href="#m308a118117" x="356.313" y="130.438" style="fill:#ff7f0e;stroke:#ff7f0e"/><use xlink:href="#m308a118117" x="359.559" y="122.644" style="fill:#ff7f0e;stroke:#ff7f0e"/><use xlink:href="#m308a118117" x="362.806" y="114.86" style="fill:#ff7f0e;stroke:#ff7f0e"/><use xlink:href="#m308a118117" x="366.052" y="107.086" style="fill:#ff7f0e;stroke:#ff7f0e"/><use xlink:href="#m308a118117" x="369.299" y="99.321" style="fill:#ff7f0e;stroke:#ff7f0e"/><use xlink:href="#m308a118117" x="372.545" y="91.566" style="fill:#ff7f0e;stroke:#ff7f0e"/><use xlink:href="#m308a118117" x="375.792" y="83.821" style="fill:#ff7f0e;stroke:#ff7f0e"/><use xlink:href="#m308a118117" x="379.039" y="76.085" style="fill:#ff7f0e;stroke:#ff7f0e"/><use xlink:href="#m308a118117" x="382.285" y="68.358" style="fill:#ff7f0e;stroke:#ff7f0e"/><use xlink:href="#m308a118117" x="385.532" y="60.642" style="fill:#ff7f0e;stroke:#ff7f0e"/></g></g><path d="M44.644 273.312V7.2" style="fill:none;stroke:#000;stroke-width:.8;stroke-linejoin:miter;stroke-linecap:square" id="patch_3"/><path d="M401.764 273.312V7.2" style="fill:none;stroke:#000;stroke-width:.8;stroke-linejoin:miter;stroke-linecap:square" id="patch_4"/><path d="M44.644 273.312h357.12" style="fill:none;stroke:#000;stroke-width:.8;stroke-linejoin:miter;stroke-linecap:square" id="patch_5"/><path d="M44.644 7.2h357.12" style="fill:none;stroke:#000;stroke-width:.8;stroke-linejoin:miter;stroke-linecap:square" id="patch_6"/></g></g><defs><clipPath id="pf208bbf5ac"><path d="M44.644 7.2h357.12v266.112H44.644z"/></clipPath></defs></svg>